<svg viewBox="0 333 1497 845.9999999999999" xmlns:xlink="http://www.w3.org/1999/xlink" version="1.1" xmlns="http://www.w3.org/2000/svg" style="max-height: 500px" width="1497" height="845.9999999999999"><rect fill="#463746" stroke="transparent" id="background" y="0" x="0" height="1500" width="1500"/><svg y="250" x="250" viewBox="0 0 555 394" data-id="lg_wNjedFrLO6Sfsdiu7L" data-version="2" height="1000" width="1000" xml:space="preserve"><rect fill="transparent" height="100%" width="100%"/><circle transform="rotate(180 99.044 98.5)scale(.9258)" stroke-width="3" stroke="#eaa79c" fill="none" r="206.742"/><rect transform="rotate(180 180.032 98.501)scale(.9258)" ry="0" rx="0" fill="#463746" y="-88.418" x="-101.583" height="176.835" width="203.166"/><path d="M285.285 215.85h-17.7v-39h17.1v3.6h-12.9v13.8h10.5v3.6h-10.5v14.4h13.5zm23.7-7.5v-3.3h4.2v3.3q0 3.9-2.4 6.15-2.4 2.25-7.44 2.25-5.04 0-7.5-2.25t-2.46-6.15v-24q0-3.9 2.4-6.15 2.4-2.25 7.44-2.25 5.04 0 7.5 2.25t2.46 6.15v5.7h-4.2v-5.7q0-2.28-1.41-3.54-1.41-1.26-4.35-1.26-2.88 0-4.26 1.26t-1.38 3.54v24q0 2.22 1.41 3.51 1.41 1.29 4.35 1.29 2.88 0 4.26-1.29t1.38-3.51m18.9 7.5h-4.2v-39h4.2v17.4h11.82v-17.4h4.2v39h-4.2v-18h-11.82zm47.52-31.5v24q0 3.9-2.49 6.15-2.49 2.25-7.65 2.25t-7.71-2.25q-2.55-2.25-2.55-6.15v-24q0-3.9 2.49-6.15 2.49-2.25 7.65-2.25t7.71 2.25q2.55 2.25 2.55 6.15m-4.2 24v-24q0-2.28-1.5-3.54-1.5-1.26-4.56-1.26-3 0-4.47 1.26-1.47 1.26-1.47 3.54v24q0 2.22 1.5 3.51 1.5 1.29 4.56 1.29 3 0 4.47-1.29 1.47-1.29 1.47-3.51m20.58-18.48 10.74 10.32q1.8 1.92 2.43 3.72.63 1.8.63 4.44 0 3.9-2.4 6.15-2.4 2.25-7.74 2.25-5.28 0-7.71-2.25-2.43-2.25-2.43-6.15v-5.1h4.2v5.34q0 2.04 1.47 3.3 1.47 1.26 4.47 1.26t4.47-1.26q1.47-1.26 1.47-3.3 0-1.86-.39-3.12t-1.89-2.7l-10.56-10.32q-1.86-1.92-2.55-3.72-.69-1.8-.69-4.38 0-3.9 2.46-6.15 2.46-2.25 7.56-2.25 5.04 0 7.35 2.25 2.31 2.25 2.31 6.15v5.1h-4.2v-5.34q0-2.1-1.38-3.33t-4.26-1.23q-2.88 0-4.26 1.23t-1.38 3.33q0 1.86.39 3.12t1.89 2.64m28.8 25.98h-4.2v-39h9.06q4.8 0 7.17 2.25t2.37 6.15v10.2q0 3.9-2.34 6.15-2.34 2.25-7.2 2.25h-4.86zm10.2-20.4v-10.2q0-2.22-1.35-3.51-1.35-1.29-3.99-1.29h-4.86v19.8h4.86q2.7 0 4.02-1.29 1.32-1.29 1.32-3.51m18 20.4h-4.2v-39h4.2v17.4h11.82v-17.4h4.2v39h-4.2v-18h-11.82zm42.72-7.5v-3.3h4.2v3.3q0 3.9-2.4 6.15-2.4 2.25-7.44 2.25-5.04 0-7.5-2.25t-2.46-6.15v-24q0-3.9 2.4-6.15 2.4-2.25 7.44-2.25 5.04 0 7.5 2.25t2.46 6.15v13.2h-15.6v10.8q0 2.22 1.41 3.51 1.41 1.29 4.35 1.29 2.88 0 4.26-1.29t1.38-3.51m-11.4-24v9.6h11.4v-9.6q0-2.28-1.41-3.54-1.41-1.26-4.35-1.26-2.88 0-4.26 1.26t-1.38 3.54m30.9 31.5h-4.2v-39h1.8l1.74 4.44q.84-2.28 2.28-3.81 1.44-1.53 3.84-1.53 3.48 0 5.31 1.95 1.83 1.95 1.83 5.85v3.9h-4.02v-4.14q0-1.74-.78-2.85t-2.52-1.11q-1.14 0-2.37.9-1.23.9-2.07 2.85-.84 1.95-.84 5.13zm34.5-7.5v-3.3h4.2v3.3q0 3.9-2.4 6.15-2.4 2.25-7.44 2.25-5.04 0-7.5-2.25t-2.46-6.15v-24q0-3.9 2.4-6.15 2.4-2.25 7.44-2.25 5.04 0 7.5 2.25t2.46 6.15v13.2h-15.6v10.8q0 2.22 1.41 3.51 1.41 1.29 4.35 1.29 2.88 0 4.26-1.29t1.38-3.51m-11.4-24v9.6h11.4v-9.6q0-2.28-1.41-3.54-1.41-1.26-4.35-1.26-2.88 0-4.26 1.26t-1.38 3.54" fill="#fff"/></svg></svg>